<mxfile host="drawio-plugin" modified="2022-02-15T18:45:48.634Z" agent="5.0 (Windows NT 6.2; Win64; x64) AppleWebKit/537.36 (KHTML, like Gecko) Chrome/89.0.4389.90 Safari/537.36" etag="WMTQV7oZ9xRiPyKHkqSi" version="15.5.4" type="embed" pages="2"><diagram id="mj0fnnfVhqApcVCHmJ8y" name="UML"><mxGraphModel dx="1675" dy="400" grid="1" gridSize="10" guides="1" tooltips="1" connect="1" arrows="1" fold="1" page="1" pageScale="1" pageWidth="850" pageHeight="1100" math="0" shadow="0"><root><mxCell id="0"/><mxCell id="1" parent="0"/><mxCell id="Y6nLDF8GAfa-NZqj4Vh6-22" value="groop" style="shape=table;startSize=30;container=1;collapsible=1;childLayout=tableLayout;fixedRows=1;rowLines=0;fontStyle=1;align=center;resizeLast=1;fillColor=#1ba1e2;fontColor=#ffffff;strokeColor=#006EAF;" parent="1" vertex="1"><mxGeometry x="-10" y="710" width="180" height="160" as="geometry"/></mxCell><mxCell id="Y6nLDF8GAfa-NZqj4Vh6-23" value="" style="shape=partialRectangle;collapsible=0;dropTarget=0;pointerEvents=0;fillColor=none;top=0;left=0;bottom=1;right=0;points=[[0,0.5],[1,0.5]];portConstraint=eastwest;" parent="Y6nLDF8GAfa-NZqj4Vh6-22" vertex="1"><mxGeometry y="30" width="180" height="30" as="geometry"/></mxCell><mxCell id="Y6nLDF8GAfa-NZqj4Vh6-24" value="PK" style="shape=partialRectangle;connectable=0;fillColor=none;top=0;left=0;bottom=0;right=0;fontStyle=1;overflow=hidden;" parent="Y6nLDF8GAfa-NZqj4Vh6-23" vertex="1"><mxGeometry width="30" height="30" as="geometry"><mxRectangle width="30" height="30" as="alternateBounds"/></mxGeometry></mxCell><mxCell id="Y6nLDF8GAfa-NZqj4Vh6-25" value="id" style="shape=partialRectangle;connectable=0;fillColor=none;top=0;left=0;bottom=0;right=0;align=left;spacingLeft=6;fontStyle=5;overflow=hidden;" parent="Y6nLDF8GAfa-NZqj4Vh6-23" vertex="1"><mxGeometry x="30" width="150" height="30" as="geometry"><mxRectangle width="150" height="30" as="alternateBounds"/></mxGeometry></mxCell><mxCell id="Y6nLDF8GAfa-NZqj4Vh6-26" value="" style="shape=partialRectangle;collapsible=0;dropTarget=0;pointerEvents=0;fillColor=none;top=0;left=0;bottom=0;right=0;points=[[0,0.5],[1,0.5]];portConstraint=eastwest;" parent="Y6nLDF8GAfa-NZqj4Vh6-22" vertex="1"><mxGeometry y="60" width="180" height="30" as="geometry"/></mxCell><mxCell id="Y6nLDF8GAfa-NZqj4Vh6-27" value="" style="shape=partialRectangle;connectable=0;fillColor=none;top=0;left=0;bottom=0;right=0;editable=1;overflow=hidden;" parent="Y6nLDF8GAfa-NZqj4Vh6-26" vertex="1"><mxGeometry width="30" height="30" as="geometry"><mxRectangle width="30" height="30" as="alternateBounds"/></mxGeometry></mxCell><mxCell id="Y6nLDF8GAfa-NZqj4Vh6-28" value="number" style="shape=partialRectangle;connectable=0;fillColor=none;top=0;left=0;bottom=0;right=0;align=left;spacingLeft=6;overflow=hidden;" parent="Y6nLDF8GAfa-NZqj4Vh6-26" vertex="1"><mxGeometry x="30" width="150" height="30" as="geometry"><mxRectangle width="150" height="30" as="alternateBounds"/></mxGeometry></mxCell><mxCell id="Y6nLDF8GAfa-NZqj4Vh6-29" value="" style="shape=partialRectangle;collapsible=0;dropTarget=0;pointerEvents=0;fillColor=none;top=0;left=0;bottom=0;right=0;points=[[0,0.5],[1,0.5]];portConstraint=eastwest;" parent="Y6nLDF8GAfa-NZqj4Vh6-22" vertex="1"><mxGeometry y="90" width="180" height="30" as="geometry"/></mxCell><mxCell id="Y6nLDF8GAfa-NZqj4Vh6-30" value="" style="shape=partialRectangle;connectable=0;fillColor=none;top=0;left=0;bottom=0;right=0;editable=1;overflow=hidden;" parent="Y6nLDF8GAfa-NZqj4Vh6-29" vertex="1"><mxGeometry width="30" height="30" as="geometry"><mxRectangle width="30" height="30" as="alternateBounds"/></mxGeometry></mxCell><mxCell id="Y6nLDF8GAfa-NZqj4Vh6-31" value="" style="shape=partialRectangle;connectable=0;fillColor=none;top=0;left=0;bottom=0;right=0;align=left;spacingLeft=6;overflow=hidden;" parent="Y6nLDF8GAfa-NZqj4Vh6-29" vertex="1"><mxGeometry x="30" width="150" height="30" as="geometry"><mxRectangle width="150" height="30" as="alternateBounds"/></mxGeometry></mxCell><mxCell id="Y6nLDF8GAfa-NZqj4Vh6-32" value="" style="shape=partialRectangle;collapsible=0;dropTarget=0;pointerEvents=0;fillColor=none;top=0;left=0;bottom=0;right=0;points=[[0,0.5],[1,0.5]];portConstraint=eastwest;" parent="Y6nLDF8GAfa-NZqj4Vh6-22" vertex="1"><mxGeometry y="120" width="180" height="30" as="geometry"/></mxCell><mxCell id="Y6nLDF8GAfa-NZqj4Vh6-33" value="" style="shape=partialRectangle;connectable=0;fillColor=none;top=0;left=0;bottom=0;right=0;editable=1;overflow=hidden;" parent="Y6nLDF8GAfa-NZqj4Vh6-32" vertex="1"><mxGeometry width="30" height="30" as="geometry"><mxRectangle width="30" height="30" as="alternateBounds"/></mxGeometry></mxCell><mxCell id="Y6nLDF8GAfa-NZqj4Vh6-34" value="" style="shape=partialRectangle;connectable=0;fillColor=none;top=0;left=0;bottom=0;right=0;align=left;spacingLeft=6;overflow=hidden;" parent="Y6nLDF8GAfa-NZqj4Vh6-32" vertex="1"><mxGeometry x="30" width="150" height="30" as="geometry"><mxRectangle width="150" height="30" as="alternateBounds"/></mxGeometry></mxCell><mxCell id="3" value="student" style="shape=table;startSize=30;container=1;collapsible=1;childLayout=tableLayout;fixedRows=1;rowLines=0;fontStyle=1;align=center;resizeLast=1;fillColor=#1ba1e2;fontColor=#ffffff;strokeColor=#006EAF;" parent="1" vertex="1"><mxGeometry x="245" y="870" width="180" height="170" as="geometry"/></mxCell><mxCell id="4" value="" style="shape=partialRectangle;collapsible=0;dropTarget=0;pointerEvents=0;fillColor=none;top=0;left=0;bottom=1;right=0;points=[[0,0.5],[1,0.5]];portConstraint=eastwest;" parent="3" vertex="1"><mxGeometry y="30" width="180" height="30" as="geometry"/></mxCell><mxCell id="5" value="PK" style="shape=partialRectangle;connectable=0;fillColor=none;top=0;left=0;bottom=0;right=0;fontStyle=1;overflow=hidden;" parent="4" vertex="1"><mxGeometry width="30" height="30" as="geometry"><mxRectangle width="30" height="30" as="alternateBounds"/></mxGeometry></mxCell><mxCell id="6" value="id" style="shape=partialRectangle;connectable=0;fillColor=none;top=0;left=0;bottom=0;right=0;align=left;spacingLeft=6;fontStyle=5;overflow=hidden;" parent="4" vertex="1"><mxGeometry x="30" width="150" height="30" as="geometry"><mxRectangle width="150" height="30" as="alternateBounds"/></mxGeometry></mxCell><mxCell id="7" value="" style="shape=partialRectangle;collapsible=0;dropTarget=0;pointerEvents=0;fillColor=none;top=0;left=0;bottom=0;right=0;points=[[0,0.5],[1,0.5]];portConstraint=eastwest;" parent="3" vertex="1"><mxGeometry y="60" width="180" height="30" as="geometry"/></mxCell><mxCell id="8" value="" style="shape=partialRectangle;connectable=0;fillColor=none;top=0;left=0;bottom=0;right=0;editable=1;overflow=hidden;" parent="7" vertex="1"><mxGeometry width="30" height="30" as="geometry"><mxRectangle width="30" height="30" as="alternateBounds"/></mxGeometry></mxCell><mxCell id="9" value="first_name" style="shape=partialRectangle;connectable=0;fillColor=none;top=0;left=0;bottom=0;right=0;align=left;spacingLeft=6;overflow=hidden;" parent="7" vertex="1"><mxGeometry x="30" width="150" height="30" as="geometry"><mxRectangle width="150" height="30" as="alternateBounds"/></mxGeometry></mxCell><mxCell id="42" value="" style="shape=partialRectangle;collapsible=0;dropTarget=0;pointerEvents=0;fillColor=none;top=0;left=0;bottom=0;right=0;points=[[0,0.5],[1,0.5]];portConstraint=eastwest;" parent="3" vertex="1"><mxGeometry y="90" width="180" height="30" as="geometry"/></mxCell><mxCell id="43" value="" style="shape=partialRectangle;connectable=0;fillColor=none;top=0;left=0;bottom=0;right=0;editable=1;overflow=hidden;" parent="42" vertex="1"><mxGeometry width="30" height="30" as="geometry"><mxRectangle width="30" height="30" as="alternateBounds"/></mxGeometry></mxCell><mxCell id="44" value="last_name" style="shape=partialRectangle;connectable=0;fillColor=none;top=0;left=0;bottom=0;right=0;align=left;spacingLeft=6;overflow=hidden;" parent="42" vertex="1"><mxGeometry x="30" width="150" height="30" as="geometry"><mxRectangle width="150" height="30" as="alternateBounds"/></mxGeometry></mxCell><mxCell id="10" value="" style="shape=partialRectangle;collapsible=0;dropTarget=0;pointerEvents=0;fillColor=none;top=0;left=0;bottom=0;right=0;points=[[0,0.5],[1,0.5]];portConstraint=eastwest;" parent="3" vertex="1"><mxGeometry y="120" width="180" height="30" as="geometry"/></mxCell><mxCell id="11" value="FK" style="shape=partialRectangle;connectable=0;fillColor=none;top=0;left=0;bottom=0;right=0;editable=1;overflow=hidden;" parent="10" vertex="1"><mxGeometry width="30" height="30" as="geometry"><mxRectangle width="30" height="30" as="alternateBounds"/></mxGeometry></mxCell><mxCell id="12" value="groop_id" style="shape=partialRectangle;connectable=0;fillColor=none;top=0;left=0;bottom=0;right=0;align=left;spacingLeft=6;overflow=hidden;" parent="10" vertex="1"><mxGeometry x="30" width="150" height="30" as="geometry"><mxRectangle width="150" height="30" as="alternateBounds"/></mxGeometry></mxCell><mxCell id="13" value="" style="shape=partialRectangle;collapsible=0;dropTarget=0;pointerEvents=0;fillColor=none;top=0;left=0;bottom=0;right=0;points=[[0,0.5],[1,0.5]];portConstraint=eastwest;" parent="3" vertex="1"><mxGeometry y="150" width="180" height="20" as="geometry"/></mxCell><mxCell id="14" value="" style="shape=partialRectangle;connectable=0;fillColor=none;top=0;left=0;bottom=0;right=0;editable=1;overflow=hidden;" parent="13" vertex="1"><mxGeometry width="30" height="20" as="geometry"><mxRectangle width="30" height="20" as="alternateBounds"/></mxGeometry></mxCell><mxCell id="15" value="" style="shape=partialRectangle;connectable=0;fillColor=none;top=0;left=0;bottom=0;right=0;align=left;spacingLeft=6;overflow=hidden;" parent="13" vertex="1"><mxGeometry x="30" width="150" height="20" as="geometry"><mxRectangle width="150" height="20" as="alternateBounds"/></mxGeometry></mxCell><mxCell id="64" value="" style="edgeStyle=entityRelationEdgeStyle;fontSize=12;html=1;endArrow=ERzeroToMany;startArrow=ERmandOne;rounded=0;" parent="1" source="Y6nLDF8GAfa-NZqj4Vh6-23" target="10" edge="1"><mxGeometry width="100" height="100" relative="1" as="geometry"><mxPoint x="30" y="690" as="sourcePoint"/><mxPoint x="130" y="590" as="targetPoint"/></mxGeometry></mxCell><mxCell id="70" value="" style="edgeStyle=entityRelationEdgeStyle;fontSize=12;html=1;endArrow=ERzeroToMany;startArrow=ERmandOne;rounded=0;exitX=0;exitY=0.5;exitDx=0;exitDy=0;" parent="1" source="Y6nLDF8GAfa-NZqj4Vh6-23" target="82" edge="1"><mxGeometry width="100" height="100" relative="1" as="geometry"><mxPoint x="30" y="870" as="sourcePoint"/><mxPoint x="320" y="960" as="targetPoint"/></mxGeometry></mxCell><mxCell id="72" value="student" style="shape=table;startSize=30;container=1;collapsible=1;childLayout=tableLayout;fixedRows=1;rowLines=0;fontStyle=1;align=center;resizeLast=1;fillColor=#1ba1e2;fontColor=#ffffff;strokeColor=#006EAF;" parent="1" vertex="1"><mxGeometry x="-260" y="870" width="180" height="170" as="geometry"/></mxCell><mxCell id="73" value="" style="shape=partialRectangle;collapsible=0;dropTarget=0;pointerEvents=0;fillColor=none;top=0;left=0;bottom=1;right=0;points=[[0,0.5],[1,0.5]];portConstraint=eastwest;" parent="72" vertex="1"><mxGeometry y="30" width="180" height="30" as="geometry"/></mxCell><mxCell id="74" value="PK" style="shape=partialRectangle;connectable=0;fillColor=none;top=0;left=0;bottom=0;right=0;fontStyle=1;overflow=hidden;" parent="73" vertex="1"><mxGeometry width="30" height="30" as="geometry"><mxRectangle width="30" height="30" as="alternateBounds"/></mxGeometry></mxCell><mxCell id="75" value="id" style="shape=partialRectangle;connectable=0;fillColor=none;top=0;left=0;bottom=0;right=0;align=left;spacingLeft=6;fontStyle=5;overflow=hidden;" parent="73" vertex="1"><mxGeometry x="30" width="150" height="30" as="geometry"><mxRectangle width="150" height="30" as="alternateBounds"/></mxGeometry></mxCell><mxCell id="76" value="" style="shape=partialRectangle;collapsible=0;dropTarget=0;pointerEvents=0;fillColor=none;top=0;left=0;bottom=0;right=0;points=[[0,0.5],[1,0.5]];portConstraint=eastwest;" parent="72" vertex="1"><mxGeometry y="60" width="180" height="30" as="geometry"/></mxCell><mxCell id="77" value="" style="shape=partialRectangle;connectable=0;fillColor=none;top=0;left=0;bottom=0;right=0;editable=1;overflow=hidden;" parent="76" vertex="1"><mxGeometry width="30" height="30" as="geometry"><mxRectangle width="30" height="30" as="alternateBounds"/></mxGeometry></mxCell><mxCell id="78" value="name" style="shape=partialRectangle;connectable=0;fillColor=none;top=0;left=0;bottom=0;right=0;align=left;spacingLeft=6;overflow=hidden;" parent="76" vertex="1"><mxGeometry x="30" width="150" height="30" as="geometry"><mxRectangle width="150" height="30" as="alternateBounds"/></mxGeometry></mxCell><mxCell id="79" value="" style="shape=partialRectangle;collapsible=0;dropTarget=0;pointerEvents=0;fillColor=none;top=0;left=0;bottom=0;right=0;points=[[0,0.5],[1,0.5]];portConstraint=eastwest;" parent="72" vertex="1"><mxGeometry y="90" width="180" height="30" as="geometry"/></mxCell><mxCell id="80" value="" style="shape=partialRectangle;connectable=0;fillColor=none;top=0;left=0;bottom=0;right=0;editable=1;overflow=hidden;" parent="79" vertex="1"><mxGeometry width="30" height="30" as="geometry"><mxRectangle width="30" height="30" as="alternateBounds"/></mxGeometry></mxCell><mxCell id="81" value="day" style="shape=partialRectangle;connectable=0;fillColor=none;top=0;left=0;bottom=0;right=0;align=left;spacingLeft=6;overflow=hidden;" parent="79" vertex="1"><mxGeometry x="30" width="150" height="30" as="geometry"><mxRectangle width="150" height="30" as="alternateBounds"/></mxGeometry></mxCell><mxCell id="82" value="" style="shape=partialRectangle;collapsible=0;dropTarget=0;pointerEvents=0;fillColor=none;top=0;left=0;bottom=0;right=0;points=[[0,0.5],[1,0.5]];portConstraint=eastwest;" parent="72" vertex="1"><mxGeometry y="120" width="180" height="30" as="geometry"/></mxCell><mxCell id="83" value="FK" style="shape=partialRectangle;connectable=0;fillColor=none;top=0;left=0;bottom=0;right=0;editable=1;overflow=hidden;" parent="82" vertex="1"><mxGeometry width="30" height="30" as="geometry"><mxRectangle width="30" height="30" as="alternateBounds"/></mxGeometry></mxCell><mxCell id="84" value="day" style="shape=partialRectangle;connectable=0;fillColor=none;top=0;left=0;bottom=0;right=0;align=left;spacingLeft=6;overflow=hidden;" parent="82" vertex="1"><mxGeometry x="30" width="150" height="30" as="geometry"><mxRectangle width="150" height="30" as="alternateBounds"/></mxGeometry></mxCell><mxCell id="85" value="" style="shape=partialRectangle;collapsible=0;dropTarget=0;pointerEvents=0;fillColor=none;top=0;left=0;bottom=0;right=0;points=[[0,0.5],[1,0.5]];portConstraint=eastwest;" parent="72" vertex="1"><mxGeometry y="150" width="180" height="20" as="geometry"/></mxCell><mxCell id="86" value="" style="shape=partialRectangle;connectable=0;fillColor=none;top=0;left=0;bottom=0;right=0;editable=1;overflow=hidden;" parent="85" vertex="1"><mxGeometry width="30" height="20" as="geometry"><mxRectangle width="30" height="20" as="alternateBounds"/></mxGeometry></mxCell><mxCell id="87" value="" style="shape=partialRectangle;connectable=0;fillColor=none;top=0;left=0;bottom=0;right=0;align=left;spacingLeft=6;overflow=hidden;" parent="85" vertex="1"><mxGeometry x="30" width="150" height="20" as="geometry"><mxRectangle width="150" height="20" as="alternateBounds"/></mxGeometry></mxCell></root></mxGraphModel></diagram><diagram id="mKG6GmtqVx_u0mOJTY95" name="Models"><mxGraphModel dx="1538" dy="333" grid="1" gridSize="10" guides="1" tooltips="1" connect="1" arrows="1" fold="1" page="1" pageScale="1" pageWidth="850" pageHeight="1100" math="0" shadow="0"><root><mxCell id="ro-lKWhntBanD2bIPnRa-0"/><mxCell id="ro-lKWhntBanD2bIPnRa-1" parent="ro-lKWhntBanD2bIPnRa-0"/><mxCell id="72zd2GLyY2EG-nOjPAd4-20" value="BaseEntity&#10;" style="swimlane;fontStyle=1;align=center;verticalAlign=top;childLayout=stackLayout;horizontal=1;startSize=26;horizontalStack=0;resizeParent=1;resizeParentMax=0;resizeLast=0;collapsible=1;marginBottom=0;fillColor=#60a917;fontColor=#ffffff;strokeColor=#2D7600;" parent="ro-lKWhntBanD2bIPnRa-1" vertex="1"><mxGeometry x="-170" y="30" width="160" height="112" as="geometry"/></mxCell><mxCell id="72zd2GLyY2EG-nOjPAd4-21" value="- id: long" style="text;strokeColor=none;fillColor=none;align=left;verticalAlign=top;spacingLeft=4;spacingRight=4;overflow=hidden;rotatable=0;points=[[0,0.5],[1,0.5]];portConstraint=eastwest;" parent="72zd2GLyY2EG-nOjPAd4-20" vertex="1"><mxGeometry y="26" width="160" height="26" as="geometry"/></mxCell><mxCell id="72zd2GLyY2EG-nOjPAd4-22" value="" style="line;strokeWidth=1;fillColor=none;align=left;verticalAlign=middle;spacingTop=-1;spacingLeft=3;spacingRight=3;rotatable=0;labelPosition=right;points=[];portConstraint=eastwest;" parent="72zd2GLyY2EG-nOjPAd4-20" vertex="1"><mxGeometry y="52" width="160" height="8" as="geometry"/></mxCell><mxCell id="72zd2GLyY2EG-nOjPAd4-23" value="+ getId(): long" style="text;strokeColor=none;fillColor=none;align=left;verticalAlign=top;spacingLeft=4;spacingRight=4;overflow=hidden;rotatable=0;points=[[0,0.5],[1,0.5]];portConstraint=eastwest;" parent="72zd2GLyY2EG-nOjPAd4-20" vertex="1"><mxGeometry y="60" width="160" height="26" as="geometry"/></mxCell><mxCell id="72zd2GLyY2EG-nOjPAd4-40" value="+ setId(): void" style="text;strokeColor=none;fillColor=none;align=left;verticalAlign=top;spacingLeft=4;spacingRight=4;overflow=hidden;rotatable=0;points=[[0,0.5],[1,0.5]];portConstraint=eastwest;" parent="72zd2GLyY2EG-nOjPAd4-20" vertex="1"><mxGeometry y="86" width="160" height="26" as="geometry"/></mxCell><mxCell id="72zd2GLyY2EG-nOjPAd4-24" value="Student" style="swimlane;fontStyle=1;align=center;verticalAlign=top;childLayout=stackLayout;horizontal=1;startSize=26;horizontalStack=0;resizeParent=1;resizeParentMax=0;resizeLast=0;collapsible=1;marginBottom=0;fillColor=#60a917;fontColor=#ffffff;strokeColor=#2D7600;" parent="ro-lKWhntBanD2bIPnRa-1" vertex="1"><mxGeometry x="-60" y="270" width="190" height="268" as="geometry"/></mxCell><mxCell id="72zd2GLyY2EG-nOjPAd4-25" value="- firstName: String" style="text;strokeColor=none;fillColor=none;align=left;verticalAlign=top;spacingLeft=4;spacingRight=4;overflow=hidden;rotatable=0;points=[[0,0.5],[1,0.5]];portConstraint=eastwest;" parent="72zd2GLyY2EG-nOjPAd4-24" vertex="1"><mxGeometry y="26" width="190" height="26" as="geometry"/></mxCell><mxCell id="72zd2GLyY2EG-nOjPAd4-74" value="- lastName: String" style="text;strokeColor=none;fillColor=none;align=left;verticalAlign=top;spacingLeft=4;spacingRight=4;overflow=hidden;rotatable=0;points=[[0,0.5],[1,0.5]];portConstraint=eastwest;" parent="72zd2GLyY2EG-nOjPAd4-24" vertex="1"><mxGeometry y="52" width="190" height="26" as="geometry"/></mxCell><mxCell id="xKQI9yz6REgHTFUcKtC8-28" value="- groop: Groop" style="text;strokeColor=none;fillColor=none;align=left;verticalAlign=top;spacingLeft=4;spacingRight=4;overflow=hidden;rotatable=0;points=[[0,0.5],[1,0.5]];portConstraint=eastwest;" vertex="1" parent="72zd2GLyY2EG-nOjPAd4-24"><mxGeometry y="78" width="190" height="26" as="geometry"/></mxCell><mxCell id="72zd2GLyY2EG-nOjPAd4-26" value="" style="line;strokeWidth=1;fillColor=none;align=left;verticalAlign=middle;spacingTop=-1;spacingLeft=3;spacingRight=3;rotatable=0;labelPosition=right;points=[];portConstraint=eastwest;" parent="72zd2GLyY2EG-nOjPAd4-24" vertex="1"><mxGeometry y="104" width="190" height="8" as="geometry"/></mxCell><mxCell id="xKQI9yz6REgHTFUcKtC8-19" value="+ getFirstName(): string" style="text;strokeColor=none;fillColor=none;align=left;verticalAlign=top;spacingLeft=4;spacingRight=4;overflow=hidden;rotatable=0;points=[[0,0.5],[1,0.5]];portConstraint=eastwest;" vertex="1" parent="72zd2GLyY2EG-nOjPAd4-24"><mxGeometry y="112" width="190" height="26" as="geometry"/></mxCell><mxCell id="xKQI9yz6REgHTFUcKtC8-25" value="+ setFirstName(string): void" style="text;strokeColor=none;fillColor=none;align=left;verticalAlign=top;spacingLeft=4;spacingRight=4;overflow=hidden;rotatable=0;points=[[0,0.5],[1,0.5]];portConstraint=eastwest;" vertex="1" parent="72zd2GLyY2EG-nOjPAd4-24"><mxGeometry y="138" width="190" height="26" as="geometry"/></mxCell><mxCell id="xKQI9yz6REgHTFUcKtC8-26" value="+ getLastName(): string" style="text;strokeColor=none;fillColor=none;align=left;verticalAlign=top;spacingLeft=4;spacingRight=4;overflow=hidden;rotatable=0;points=[[0,0.5],[1,0.5]];portConstraint=eastwest;" vertex="1" parent="72zd2GLyY2EG-nOjPAd4-24"><mxGeometry y="164" width="190" height="26" as="geometry"/></mxCell><mxCell id="xKQI9yz6REgHTFUcKtC8-27" value="+ setLastName(string): void" style="text;strokeColor=none;fillColor=none;align=left;verticalAlign=top;spacingLeft=4;spacingRight=4;overflow=hidden;rotatable=0;points=[[0,0.5],[1,0.5]];portConstraint=eastwest;" vertex="1" parent="72zd2GLyY2EG-nOjPAd4-24"><mxGeometry y="190" width="190" height="26" as="geometry"/></mxCell><mxCell id="xKQI9yz6REgHTFUcKtC8-30" value="+ getGroop(): Groop" style="text;strokeColor=none;fillColor=none;align=left;verticalAlign=top;spacingLeft=4;spacingRight=4;overflow=hidden;rotatable=0;points=[[0,0.5],[1,0.5]];portConstraint=eastwest;" vertex="1" parent="72zd2GLyY2EG-nOjPAd4-24"><mxGeometry y="216" width="190" height="26" as="geometry"/></mxCell><mxCell id="xKQI9yz6REgHTFUcKtC8-29" value="+ setGroop(Groop): void" style="text;strokeColor=none;fillColor=none;align=left;verticalAlign=top;spacingLeft=4;spacingRight=4;overflow=hidden;rotatable=0;points=[[0,0.5],[1,0.5]];portConstraint=eastwest;" vertex="1" parent="72zd2GLyY2EG-nOjPAd4-24"><mxGeometry y="242" width="190" height="26" as="geometry"/></mxCell><mxCell id="72zd2GLyY2EG-nOjPAd4-28" value="Lection" style="swimlane;fontStyle=1;align=center;verticalAlign=top;childLayout=stackLayout;horizontal=1;startSize=26;horizontalStack=0;resizeParent=1;resizeParentMax=0;resizeLast=0;collapsible=1;marginBottom=0;fillColor=#60a917;fontColor=#ffffff;strokeColor=#2D7600;" parent="ro-lKWhntBanD2bIPnRa-1" vertex="1"><mxGeometry x="220" y="270" width="160" height="268" as="geometry"/></mxCell><mxCell id="72zd2GLyY2EG-nOjPAd4-29" value="- name: string" style="text;strokeColor=none;fillColor=none;align=left;verticalAlign=top;spacingLeft=4;spacingRight=4;overflow=hidden;rotatable=0;points=[[0,0.5],[1,0.5]];portConstraint=eastwest;" parent="72zd2GLyY2EG-nOjPAd4-28" vertex="1"><mxGeometry y="26" width="160" height="26" as="geometry"/></mxCell><mxCell id="xKQI9yz6REgHTFUcKtC8-9" value="- day: Day" style="text;strokeColor=none;fillColor=none;align=left;verticalAlign=top;spacingLeft=4;spacingRight=4;overflow=hidden;rotatable=0;points=[[0,0.5],[1,0.5]];portConstraint=eastwest;" vertex="1" parent="72zd2GLyY2EG-nOjPAd4-28"><mxGeometry y="52" width="160" height="26" as="geometry"/></mxCell><mxCell id="xKQI9yz6REgHTFUcKtC8-10" value="- groop: Groop" style="text;strokeColor=none;fillColor=none;align=left;verticalAlign=top;spacingLeft=4;spacingRight=4;overflow=hidden;rotatable=0;points=[[0,0.5],[1,0.5]];portConstraint=eastwest;" vertex="1" parent="72zd2GLyY2EG-nOjPAd4-28"><mxGeometry y="78" width="160" height="26" as="geometry"/></mxCell><mxCell id="72zd2GLyY2EG-nOjPAd4-30" value="" style="line;strokeWidth=1;fillColor=none;align=left;verticalAlign=middle;spacingTop=-1;spacingLeft=3;spacingRight=3;rotatable=0;labelPosition=right;points=[];portConstraint=eastwest;" parent="72zd2GLyY2EG-nOjPAd4-28" vertex="1"><mxGeometry y="104" width="160" height="8" as="geometry"/></mxCell><mxCell id="72zd2GLyY2EG-nOjPAd4-31" value="+ getName(): string" style="text;strokeColor=none;fillColor=none;align=left;verticalAlign=top;spacingLeft=4;spacingRight=4;overflow=hidden;rotatable=0;points=[[0,0.5],[1,0.5]];portConstraint=eastwest;" parent="72zd2GLyY2EG-nOjPAd4-28" vertex="1"><mxGeometry y="112" width="160" height="26" as="geometry"/></mxCell><mxCell id="xKQI9yz6REgHTFUcKtC8-11" value="+ setName(string): void" style="text;strokeColor=none;fillColor=none;align=left;verticalAlign=top;spacingLeft=4;spacingRight=4;overflow=hidden;rotatable=0;points=[[0,0.5],[1,0.5]];portConstraint=eastwest;" vertex="1" parent="72zd2GLyY2EG-nOjPAd4-28"><mxGeometry y="138" width="160" height="26" as="geometry"/></mxCell><mxCell id="xKQI9yz6REgHTFUcKtC8-12" value="+ getDay(): Day" style="text;strokeColor=none;fillColor=none;align=left;verticalAlign=top;spacingLeft=4;spacingRight=4;overflow=hidden;rotatable=0;points=[[0,0.5],[1,0.5]];portConstraint=eastwest;" vertex="1" parent="72zd2GLyY2EG-nOjPAd4-28"><mxGeometry y="164" width="160" height="26" as="geometry"/></mxCell><mxCell id="xKQI9yz6REgHTFUcKtC8-13" value="+ setDay(Day): void" style="text;strokeColor=none;fillColor=none;align=left;verticalAlign=top;spacingLeft=4;spacingRight=4;overflow=hidden;rotatable=0;points=[[0,0.5],[1,0.5]];portConstraint=eastwest;" vertex="1" parent="72zd2GLyY2EG-nOjPAd4-28"><mxGeometry y="190" width="160" height="26" as="geometry"/></mxCell><mxCell id="xKQI9yz6REgHTFUcKtC8-31" value="+ getGroop(): Groop" style="text;strokeColor=none;fillColor=none;align=left;verticalAlign=top;spacingLeft=4;spacingRight=4;overflow=hidden;rotatable=0;points=[[0,0.5],[1,0.5]];portConstraint=eastwest;" vertex="1" parent="72zd2GLyY2EG-nOjPAd4-28"><mxGeometry y="216" width="160" height="26" as="geometry"/></mxCell><mxCell id="xKQI9yz6REgHTFUcKtC8-32" value="+ setGroop(Groop): void" style="text;strokeColor=none;fillColor=none;align=left;verticalAlign=top;spacingLeft=4;spacingRight=4;overflow=hidden;rotatable=0;points=[[0,0.5],[1,0.5]];portConstraint=eastwest;" vertex="1" parent="72zd2GLyY2EG-nOjPAd4-28"><mxGeometry y="242" width="160" height="26" as="geometry"/></mxCell><mxCell id="72zd2GLyY2EG-nOjPAd4-32" value="Groop" style="swimlane;fontStyle=1;align=center;verticalAlign=top;childLayout=stackLayout;horizontal=1;startSize=26;horizontalStack=0;resizeParent=1;resizeParentMax=0;resizeLast=0;collapsible=1;marginBottom=0;fillColor=#60a917;fontColor=#ffffff;strokeColor=#2D7600;" parent="ro-lKWhntBanD2bIPnRa-1" vertex="1"><mxGeometry x="-380" y="270" width="200" height="268" as="geometry"/></mxCell><mxCell id="72zd2GLyY2EG-nOjPAd4-33" value="- number: string" style="text;strokeColor=none;fillColor=none;align=left;verticalAlign=top;spacingLeft=4;spacingRight=4;overflow=hidden;rotatable=0;points=[[0,0.5],[1,0.5]];portConstraint=eastwest;" parent="72zd2GLyY2EG-nOjPAd4-32" vertex="1"><mxGeometry y="26" width="200" height="26" as="geometry"/></mxCell><mxCell id="xKQI9yz6REgHTFUcKtC8-16" value="- students: Student" style="text;strokeColor=none;fillColor=none;align=left;verticalAlign=top;spacingLeft=4;spacingRight=4;overflow=hidden;rotatable=0;points=[[0,0.5],[1,0.5]];portConstraint=eastwest;" vertex="1" parent="72zd2GLyY2EG-nOjPAd4-32"><mxGeometry y="52" width="200" height="26" as="geometry"/></mxCell><mxCell id="xKQI9yz6REgHTFUcKtC8-17" value="- lections: Lection" style="text;strokeColor=none;fillColor=none;align=left;verticalAlign=top;spacingLeft=4;spacingRight=4;overflow=hidden;rotatable=0;points=[[0,0.5],[1,0.5]];portConstraint=eastwest;" vertex="1" parent="72zd2GLyY2EG-nOjPAd4-32"><mxGeometry y="78" width="200" height="26" as="geometry"/></mxCell><mxCell id="72zd2GLyY2EG-nOjPAd4-34" value="" style="line;strokeWidth=1;fillColor=none;align=left;verticalAlign=middle;spacingTop=-1;spacingLeft=3;spacingRight=3;rotatable=0;labelPosition=right;points=[];portConstraint=eastwest;" parent="72zd2GLyY2EG-nOjPAd4-32" vertex="1"><mxGeometry y="104" width="200" height="8" as="geometry"/></mxCell><mxCell id="xKQI9yz6REgHTFUcKtC8-6" value="+ addLections(Lection): void" style="text;strokeColor=none;fillColor=none;align=left;verticalAlign=top;spacingLeft=4;spacingRight=4;overflow=hidden;rotatable=0;points=[[0,0.5],[1,0.5]];portConstraint=eastwest;" vertex="1" parent="72zd2GLyY2EG-nOjPAd4-32"><mxGeometry y="112" width="200" height="26" as="geometry"/></mxCell><mxCell id="xKQI9yz6REgHTFUcKtC8-7" value="+ deleteLections(Lection): void" style="text;strokeColor=none;fillColor=none;align=left;verticalAlign=top;spacingLeft=4;spacingRight=4;overflow=hidden;rotatable=0;points=[[0,0.5],[1,0.5]];portConstraint=eastwest;" vertex="1" parent="72zd2GLyY2EG-nOjPAd4-32"><mxGeometry y="138" width="200" height="26" as="geometry"/></mxCell><mxCell id="xKQI9yz6REgHTFUcKtC8-8" value="+ addStudents(Student): void" style="text;strokeColor=none;fillColor=none;align=left;verticalAlign=top;spacingLeft=4;spacingRight=4;overflow=hidden;rotatable=0;points=[[0,0.5],[1,0.5]];portConstraint=eastwest;" vertex="1" parent="72zd2GLyY2EG-nOjPAd4-32"><mxGeometry y="164" width="200" height="26" as="geometry"/></mxCell><mxCell id="xKQI9yz6REgHTFUcKtC8-3" value="+ deleteStudents(Student): void" style="text;strokeColor=none;fillColor=none;align=left;verticalAlign=top;spacingLeft=4;spacingRight=4;overflow=hidden;rotatable=0;points=[[0,0.5],[1,0.5]];portConstraint=eastwest;" vertex="1" parent="72zd2GLyY2EG-nOjPAd4-32"><mxGeometry y="190" width="200" height="26" as="geometry"/></mxCell><mxCell id="xKQI9yz6REgHTFUcKtC8-14" value="+ setNumber(string): void" style="text;strokeColor=none;fillColor=none;align=left;verticalAlign=top;spacingLeft=4;spacingRight=4;overflow=hidden;rotatable=0;points=[[0,0.5],[1,0.5]];portConstraint=eastwest;" vertex="1" parent="72zd2GLyY2EG-nOjPAd4-32"><mxGeometry y="216" width="200" height="26" as="geometry"/></mxCell><mxCell id="xKQI9yz6REgHTFUcKtC8-15" value="+ getNumber(): string" style="text;strokeColor=none;fillColor=none;align=left;verticalAlign=top;spacingLeft=4;spacingRight=4;overflow=hidden;rotatable=0;points=[[0,0.5],[1,0.5]];portConstraint=eastwest;" vertex="1" parent="72zd2GLyY2EG-nOjPAd4-32"><mxGeometry y="242" width="200" height="26" as="geometry"/></mxCell><mxCell id="72zd2GLyY2EG-nOjPAd4-36" value="Day" style="swimlane;fontStyle=1;align=center;verticalAlign=top;childLayout=stackLayout;horizontal=1;startSize=26;horizontalStack=0;resizeParent=1;resizeParentMax=0;resizeLast=0;collapsible=1;marginBottom=0;fillColor=#60a917;fontColor=#ffffff;strokeColor=#2D7600;" parent="ro-lKWhntBanD2bIPnRa-1" vertex="1"><mxGeometry x="490" y="283" width="160" height="190" as="geometry"/></mxCell><mxCell id="72zd2GLyY2EG-nOjPAd4-37" value="+ MONDAY: string" style="text;strokeColor=none;fillColor=none;align=left;verticalAlign=top;spacingLeft=4;spacingRight=4;overflow=hidden;rotatable=0;points=[[0,0.5],[1,0.5]];portConstraint=eastwest;" parent="72zd2GLyY2EG-nOjPAd4-36" vertex="1"><mxGeometry y="26" width="160" height="26" as="geometry"/></mxCell><mxCell id="72zd2GLyY2EG-nOjPAd4-64" value="+ TUESDAY: string" style="text;strokeColor=none;fillColor=none;align=left;verticalAlign=top;spacingLeft=4;spacingRight=4;overflow=hidden;rotatable=0;points=[[0,0.5],[1,0.5]];portConstraint=eastwest;" parent="72zd2GLyY2EG-nOjPAd4-36" vertex="1"><mxGeometry y="52" width="160" height="26" as="geometry"/></mxCell><mxCell id="72zd2GLyY2EG-nOjPAd4-65" value="+ WEDNEDAY: string" style="text;strokeColor=none;fillColor=none;align=left;verticalAlign=top;spacingLeft=4;spacingRight=4;overflow=hidden;rotatable=0;points=[[0,0.5],[1,0.5]];portConstraint=eastwest;" parent="72zd2GLyY2EG-nOjPAd4-36" vertex="1"><mxGeometry y="78" width="160" height="26" as="geometry"/></mxCell><mxCell id="72zd2GLyY2EG-nOjPAd4-66" value="+ THURSDAY: string" style="text;strokeColor=none;fillColor=none;align=left;verticalAlign=top;spacingLeft=4;spacingRight=4;overflow=hidden;rotatable=0;points=[[0,0.5],[1,0.5]];portConstraint=eastwest;" parent="72zd2GLyY2EG-nOjPAd4-36" vertex="1"><mxGeometry y="104" width="160" height="26" as="geometry"/></mxCell><mxCell id="72zd2GLyY2EG-nOjPAd4-67" value="+ FRIDAY: string" style="text;strokeColor=none;fillColor=none;align=left;verticalAlign=top;spacingLeft=4;spacingRight=4;overflow=hidden;rotatable=0;points=[[0,0.5],[1,0.5]];portConstraint=eastwest;" parent="72zd2GLyY2EG-nOjPAd4-36" vertex="1"><mxGeometry y="130" width="160" height="26" as="geometry"/></mxCell><mxCell id="72zd2GLyY2EG-nOjPAd4-38" value="" style="line;strokeWidth=1;fillColor=none;align=left;verticalAlign=middle;spacingTop=-1;spacingLeft=3;spacingRight=3;rotatable=0;labelPosition=right;points=[];portConstraint=eastwest;" parent="72zd2GLyY2EG-nOjPAd4-36" vertex="1"><mxGeometry y="156" width="160" height="8" as="geometry"/></mxCell><mxCell id="72zd2GLyY2EG-nOjPAd4-39" value="+ findDay(string): Day" style="text;strokeColor=none;fillColor=none;align=left;verticalAlign=top;spacingLeft=4;spacingRight=4;overflow=hidden;rotatable=0;points=[[0,0.5],[1,0.5]];portConstraint=eastwest;" parent="72zd2GLyY2EG-nOjPAd4-36" vertex="1"><mxGeometry y="164" width="160" height="26" as="geometry"/></mxCell><mxCell id="72zd2GLyY2EG-nOjPAd4-47" value="" style="endArrow=none;html=1;edgeStyle=orthogonalEdgeStyle;rounded=0;startArrow=block;startFill=0;" parent="ro-lKWhntBanD2bIPnRa-1" source="72zd2GLyY2EG-nOjPAd4-20" target="72zd2GLyY2EG-nOjPAd4-28" edge="1"><mxGeometry relative="1" as="geometry"><mxPoint x="30" y="-10" as="sourcePoint"/><mxPoint x="190" y="-10" as="targetPoint"/><Array as="points"><mxPoint x="-90" y="170"/><mxPoint x="300" y="170"/></Array></mxGeometry></mxCell><mxCell id="72zd2GLyY2EG-nOjPAd4-50" value="" style="endArrow=none;html=1;edgeStyle=orthogonalEdgeStyle;rounded=0;startArrow=block;startFill=0;" parent="ro-lKWhntBanD2bIPnRa-1" target="72zd2GLyY2EG-nOjPAd4-24" edge="1"><mxGeometry relative="1" as="geometry"><mxPoint x="-10" y="40" as="sourcePoint"/><mxPoint x="100" y="42" as="targetPoint"/><Array as="points"><mxPoint x="35" y="40"/></Array></mxGeometry></mxCell><mxCell id="72zd2GLyY2EG-nOjPAd4-53" value="" style="endArrow=none;html=1;edgeStyle=orthogonalEdgeStyle;rounded=0;startArrow=block;startFill=0;" parent="ro-lKWhntBanD2bIPnRa-1" source="72zd2GLyY2EG-nOjPAd4-20" target="72zd2GLyY2EG-nOjPAd4-32" edge="1"><mxGeometry relative="1" as="geometry"><mxPoint x="-20" y="170" as="sourcePoint"/><mxPoint x="60" y="200" as="targetPoint"/><Array as="points"><mxPoint x="-240" y="47"/><mxPoint x="-240" y="200"/><mxPoint x="-390" y="200"/></Array></mxGeometry></mxCell><mxCell id="72zd2GLyY2EG-nOjPAd4-57" value="1" style="endArrow=diamond;html=1;endSize=12;startArrow=none;startSize=14;startFill=0;edgeStyle=orthogonalEdgeStyle;align=left;verticalAlign=bottom;rounded=0;endFill=1;" parent="ro-lKWhntBanD2bIPnRa-1" source="72zd2GLyY2EG-nOjPAd4-36" target="72zd2GLyY2EG-nOjPAd4-28" edge="1"><mxGeometry x="-0.7059" y="-8" relative="1" as="geometry"><mxPoint x="310" y="-120" as="sourcePoint"/><mxPoint x="230" y="-110" as="targetPoint"/><mxPoint as="offset"/></mxGeometry></mxCell><mxCell id="xKQI9yz6REgHTFUcKtC8-39" value="1..*" style="endArrow=diamond;html=1;endSize=12;startArrow=none;startSize=14;startFill=0;edgeStyle=orthogonalEdgeStyle;align=left;verticalAlign=bottom;rounded=0;endFill=1;" edge="1" parent="ro-lKWhntBanD2bIPnRa-1" source="72zd2GLyY2EG-nOjPAd4-24" target="72zd2GLyY2EG-nOjPAd4-32"><mxGeometry x="-0.5906" y="-10" relative="1" as="geometry"><mxPoint x="-30" y="580" as="sourcePoint"/><mxPoint x="-80" y="580" as="targetPoint"/><mxPoint as="offset"/><Array as="points"/></mxGeometry></mxCell><mxCell id="xKQI9yz6REgHTFUcKtC8-40" value="1..*" style="endArrow=diamond;html=1;endSize=12;startArrow=none;startSize=14;startFill=0;edgeStyle=orthogonalEdgeStyle;align=left;verticalAlign=bottom;rounded=0;endFill=1;" edge="1" parent="ro-lKWhntBanD2bIPnRa-1" source="72zd2GLyY2EG-nOjPAd4-28" target="72zd2GLyY2EG-nOjPAd4-32"><mxGeometry x="-0.9187" y="-14" relative="1" as="geometry"><mxPoint x="160" y="580" as="sourcePoint"/><mxPoint x="40" y="580" as="targetPoint"/><mxPoint as="offset"/><Array as="points"><mxPoint x="170" y="424"/><mxPoint x="170" y="600"/><mxPoint x="-280" y="600"/></Array></mxGeometry></mxCell></root></mxGraphModel></diagram></mxfile>